<svg id="Facebook" xmlns="http://www.w3.org/2000/svg" width="29.219" height="29.219" viewBox="0 0 29.219 29.219">
  <g id="facebook-2" data-name="facebook">
    <g id="Path_5" data-name="Path 5" fill="none">
      <path d="M25.567,0H3.652A3.656,3.656,0,0,0,0,3.652V25.567a3.656,3.656,0,0,0,3.652,3.652H25.567a3.656,3.656,0,0,0,3.652-3.652V3.652A3.656,3.656,0,0,0,25.567,0Z" stroke="none"/>
      <path d="M 3.652383804321289 1.999994277954102 C 2.741254806518555 1.999994277954102 1.999994277954102 2.741254806518555 1.999994277954102 3.652383804321289 L 1.999994277954102 25.56666564941406 C 1.999994277954102 26.4777946472168 2.741254806518555 27.21904373168945 3.652383804321289 27.21904373168945 L 25.56666564941406 27.21904373168945 C 26.4777946472168 27.21904373168945 27.21904373168945 26.4777946472168 27.21904373168945 25.56666564941406 L 27.21904373168945 3.652383804321289 C 27.21904373168945 2.741254806518555 26.4777946472168 1.999994277954102 25.56666564941406 1.999994277954102 L 3.652383804321289 1.999994277954102 M 3.652383804321289 -5.7220458984375e-06 L 25.56666564941406 -5.7220458984375e-06 C 27.58095550537109 -5.7220458984375e-06 29.21904563903809 1.638093948364258 29.21904563903809 3.652383804321289 L 29.21904563903809 25.56666564941406 C 29.21904563903809 27.58095550537109 27.58095550537109 29.21904563903809 25.56666564941406 29.21904563903809 L 3.652383804321289 29.21904563903809 C 1.638093948364258 29.21904563903809 -5.7220458984375e-06 27.58095550537109 -5.7220458984375e-06 25.56666564941406 L -5.7220458984375e-06 3.652383804321289 C -5.7220458984375e-06 1.638093948364258 1.638093948364258 -5.7220458984375e-06 3.652383804321289 -5.7220458984375e-06 Z" stroke="none" fill="#fff"/>
    </g>
    <path id="Path_6" data-name="Path 6" d="M205.7,105.131h-4.565v-3.652c0-1.008.818-.913,1.826-.913h1.826V96h-3.652a5.478,5.478,0,0,0-5.479,5.479v3.652H192V109.7h3.652V119.74h5.479V109.7h2.739Z" transform="translate(-181.043 -90.521)" fill="#fafafa"/>
  </g>
</svg>
