<?xml version="1.0" encoding="UTF-8"?>
<svg id="Layer_1" data-name="Layer 1" xmlns="http://www.w3.org/2000/svg" viewBox="0 0 1811.45 283.46">
  <defs>
    <style>
      .cls-1 {
        fill: #fff;
      }

      .cls-2 {
        fill: #ef3d24;
      }
    </style>
  </defs>
  <polygon class="cls-1" points="738.57 24.6 738.57 2.29 570.91 2.5 570.91 281.17 738.57 281.17 738.57 258.66 595.59 258.66 595.59 152.89 737.9 152.89 737.9 130.58 595.59 130.58 595.59 24.6 738.57 24.6"/>
  <polygon class="cls-1" points="295.61 2.29 504.01 281.17 531.87 281.17 323.46 2.29 295.61 2.29"/>
  <g>
    <path class="cls-1" d="m284.45,141.73C284.45,66.94,226.71,5.7,153.38,0v22.35c60.91,5.65,108.76,57.02,108.76,119.38s-47.85,113.73-108.76,119.38v22.35c73.33-5.7,131.07-66.94,131.07-141.73Z"/>
    <path class="cls-1" d="m0,141.73c0,74.79,57.74,136.04,131.07,141.73v-22.35c-60.91-5.65-108.76-57.02-108.76-119.38S70.16,28,131.07,22.35V0C57.74,5.7,0,66.94,0,141.73Z"/>
  </g>
  <polygon class="cls-1" points="1097.5 281.17 1187.1 34.92 1276.69 281.17 1300.43 281.17 1198.97 2.29 1175.23 2.29 1073.76 281.17 1097.5 281.17"/>
  <polygon class="cls-2" points="1811.45 2.29 1783.58 2.29 1693.32 123.1 1603.04 2.29 1547.34 2.29 1651.55 141.73 1547.34 281.17 1575.19 281.17 1665.47 160.37 1755.75 281.17 1811.45 281.17 1707.25 141.73 1811.45 2.29"/>
  <polygon class="cls-1" points="1039.61 2.29 982.15 232.12 929.56 123.36 916.09 123.36 863.63 232.08 806.19 2.29 783.19 2.29 852.91 281.17 864.72 281.17 922.84 160.71 981.09 281.17 992.89 281.17 1062.61 2.29 1039.61 2.29"/>
  <polygon class="cls-1" points="1487.24 2.29 1405.04 112.29 1322.83 2.29 1294.98 2.29 1391.11 130.93 1393.77 134.48 1393.77 281.17 1416.07 281.17 1416.07 134.79 1418.96 130.93 1515.09 2.29 1487.24 2.29"/>
</svg>