<svg xmlns="http://www.w3.org/2000/svg" width="42.428" height="45.667" viewBox="0 0 42.428 45.667">
  <g id="tiktok_2" data-name="tiktok 2" transform="translate(9 9)">
    <g id="tik-tok">
      <g id="red" transform="translate(3.201 1.248)">
        <path id="Path_7" data-name="Path 7" d="M113.242,212.817a3.894,3.894,0,0,0-2.024,7.255,3.834,3.834,0,0,1-.624-2.046,3.925,3.925,0,0,1,3.95-3.961,4.08,4.08,0,0,1,1.243.2v-4.368a8.591,8.591,0,0,0-1.243-.092h-.06v3.212A4.079,4.079,0,0,0,113.242,212.817Z" transform="translate(-108.18 -199.719)" fill="#f12d2d"/>
        <path id="Path_8" data-name="Path 8" d="M337.361,24H336.2a6.672,6.672,0,0,0,2.523,4.021A6.721,6.721,0,0,1,337.361,24Z" transform="translate(-322.776 -24)" fill="#f12d2d"/>
        <path id="Path_9" data-name="Path 9" d="M110.026,144.419a6.757,6.757,0,0,1-1.248-.119v3.131a10.763,10.763,0,0,1-4.254-.863,11.114,11.114,0,0,1-2.42-1.411l.022,9.653a8.075,8.075,0,0,1-2.42,5.741,8.231,8.231,0,0,1-4.6,2.3,8.588,8.588,0,0,1-1.243.092,8.241,8.241,0,0,1-5.062-1.715,7.35,7.35,0,0,0,.526.57,8.269,8.269,0,0,0,5.844,2.393,8.584,8.584,0,0,0,1.243-.092,8.231,8.231,0,0,0,4.6-2.3,8.075,8.075,0,0,0,2.42-5.741l-.081-9.653a10.661,10.661,0,0,0,2.42,1.411,10.9,10.9,0,0,0,4.254.863" transform="translate(-88.8 -137.773)" fill="#f12d2d"/>
      </g>
      <g id="Group_14" data-name="Group 14" transform="translate(3.201 1.248)">
        <path id="Path_7-2" data-name="Path 7" d="M113.242,212.817a3.894,3.894,0,0,0-2.024,7.255,3.834,3.834,0,0,1-.624-2.046,3.925,3.925,0,0,1,3.95-3.961,4.08,4.08,0,0,1,1.243.2v-4.368a8.593,8.593,0,0,0-1.243-.092h-.06v3.212A4.079,4.079,0,0,0,113.242,212.817Z" transform="translate(-108.18 -199.719)" fill="#f12d2d"/>
        <path id="Path_8-2" data-name="Path 8" d="M337.361,24H336.2a6.672,6.672,0,0,0,2.523,4.021A6.721,6.721,0,0,1,337.361,24Z" transform="translate(-322.776 -24)" fill="#f12d2d"/>
        <path id="Path_9-2" data-name="Path 9" d="M110.026,144.419a6.757,6.757,0,0,1-1.248-.119v3.131a10.763,10.763,0,0,1-4.254-.863,11.112,11.112,0,0,1-2.42-1.411l.022,9.653a8.075,8.075,0,0,1-2.42,5.741,8.231,8.231,0,0,1-4.6,2.3,8.588,8.588,0,0,1-1.243.092,8.241,8.241,0,0,1-5.062-1.715,7.357,7.357,0,0,0,.526.57,8.269,8.269,0,0,0,5.844,2.393,8.591,8.591,0,0,0,1.243-.092,8.231,8.231,0,0,0,4.6-2.3,8.075,8.075,0,0,0,2.42-5.741l-.081-9.653a10.66,10.66,0,0,0,2.42,1.411,10.9,10.9,0,0,0,4.254.863" transform="translate(-88.8 -137.773)" fill="#f12d2d"/>
      </g>
      <g id="Group_13" data-name="Group 13">
        <path id="Path_10" data-name="Path 10" d="M33.512,190.454a8.258,8.258,0,0,1,5.8-2.4v-1.156a8.594,8.594,0,0,0-1.243-.092,8.25,8.25,0,0,0-5.856,2.4,8.115,8.115,0,0,0,.011,11.552,8.267,8.267,0,0,0,.776.679,8.088,8.088,0,0,1-1.9-5.206A8.186,8.186,0,0,1,33.512,190.454Z" transform="translate(-29.8 -176.713)" fill="#00dcff"/>
        <path id="Path_11" data-name="Path 11" d="M386.827,100.608V99.446h-.011A6.622,6.622,0,0,1,382.8,98.1,6.63,6.63,0,0,0,386.827,100.608Z" transform="translate(-363.642 -92.829)" fill="#00dcff"/>
        <path id="Path_12" data-name="Path 12" d="M147.9,24.409a4.077,4.077,0,0,0,1.465-.19,3.912,3.912,0,0,0,2.708-3.708l.005-6.46V2.249h3.1A6.761,6.761,0,0,1,155.057,1h-4.277V12.8l-.005,6.46a3.912,3.912,0,0,1-2.708,3.708,3.85,3.85,0,0,1-1.465.19,3.981,3.981,0,0,1-1.8-.548A3.959,3.959,0,0,0,147.9,24.409Z" transform="translate(-138.559 -1)" fill="#00dcff"/>
      </g>
      <g id="Group_15" data-name="Group 15">
        <path id="Path_10-2" data-name="Path 10" d="M33.512,190.454a8.258,8.258,0,0,1,5.8-2.4v-1.156a8.594,8.594,0,0,0-1.243-.092,8.25,8.25,0,0,0-5.856,2.4,8.115,8.115,0,0,0,.011,11.552,8.267,8.267,0,0,0,.776.679,8.088,8.088,0,0,1-1.9-5.206A8.186,8.186,0,0,1,33.512,190.454Z" transform="translate(-29.8 -176.713)" fill="#00dcff"/>
        <path id="Path_11-2" data-name="Path 11" d="M386.827,100.608V99.446h-.011A6.622,6.622,0,0,1,382.8,98.1,6.63,6.63,0,0,0,386.827,100.608Z" transform="translate(-363.642 -92.829)" fill="#00dcff"/>
        <path id="Path_12-2" data-name="Path 12" d="M147.9,24.409a4.077,4.077,0,0,0,1.465-.19,3.912,3.912,0,0,0,2.708-3.708l.005-6.46V2.249h3.1A6.761,6.761,0,0,1,155.057,1h-4.277V12.8l-.005,6.46a3.912,3.912,0,0,1-2.708,3.708,3.85,3.85,0,0,1-1.465.19,3.981,3.981,0,0,1-1.8-.548A3.959,3.959,0,0,0,147.9,24.409Z" transform="translate(-138.559 -1)" fill="#00dcff"/>
      </g>
      <path id="Path_13" data-name="Path 13" d="M62,49.079a8.231,8.231,0,0,0,4.6-2.3,8.075,8.075,0,0,0,2.42-5.741L69,31.385a10.659,10.659,0,0,0,2.42,1.411,10.9,10.9,0,0,0,4.254.863V30.527a6.629,6.629,0,0,1-4.026-2.507A6.648,6.648,0,0,1,69.128,24H66.019V35.791l-.005,6.457a3.91,3.91,0,0,1-2.708,3.706,3.851,3.851,0,0,1-1.465.19,3.959,3.959,0,0,1-3.1-1.8,3.894,3.894,0,0,1,2.024-7.255,4.079,4.079,0,0,1,1.243.2V34.076a8.257,8.257,0,0,0-5.795,2.4A8.127,8.127,0,0,0,53.8,42.248a8.023,8.023,0,0,0,1.9,5.2,8.253,8.253,0,0,0,5.062,1.715A7.883,7.883,0,0,0,62,49.079Z" transform="translate(-52.497 -22.752)"/>
    </g>
  </g>
</svg>
