<svg id="tiktok" xmlns="http://www.w3.org/2000/svg" width="25.819" height="29.243" viewBox="0 0 25.819 29.243">
  <g id="tik-tok">
    <g id="Group_12" data-name="Group 12" transform="translate(3.384 1.319)">
      <path id="Path_7" data-name="Path 7" d="M113.468,212.989a4.116,4.116,0,0,0-2.139,7.668,4.052,4.052,0,0,1-.66-2.162,4.149,4.149,0,0,1,4.175-4.187,4.312,4.312,0,0,1,1.313.206V209.9a9.08,9.08,0,0,0-1.313-.1h-.063v3.4A4.312,4.312,0,0,0,113.468,212.989Z" transform="translate(-108.117 -199.144)" fill="#fff"/>
      <path id="Path_8" data-name="Path 8" d="M337.427,24H336.2a7.053,7.053,0,0,0,2.667,4.25A7.1,7.1,0,0,1,337.427,24Z" transform="translate(-322.011 -24)" fill="#fff"/>
      <path id="Path_9" data-name="Path 9" d="M111.236,144.426a7.142,7.142,0,0,1-1.319-.126v3.309a11.376,11.376,0,0,1-4.5-.912,11.746,11.746,0,0,1-2.558-1.491l.023,10.2a8.535,8.535,0,0,1-2.558,6.068,8.7,8.7,0,0,1-4.863,2.432,9.077,9.077,0,0,1-1.313.1,8.711,8.711,0,0,1-5.351-1.812,7.771,7.771,0,0,0,.556.6,8.74,8.74,0,0,0,6.177,2.529,9.075,9.075,0,0,0,1.313-.1,8.7,8.7,0,0,0,4.863-2.432,8.535,8.535,0,0,0,2.558-6.068l-.086-10.2a11.268,11.268,0,0,0,2.558,1.491,11.519,11.519,0,0,0,4.5.912" transform="translate(-88.8 -137.401)" fill="#fff"/>
    </g>
    <path id="Path_10" data-name="Path 10" d="M33.722,190.66a8.728,8.728,0,0,1,6.125-2.541V186.9a9.082,9.082,0,0,0-1.313-.1,8.719,8.719,0,0,0-6.188,2.541,8.571,8.571,0,0,0,.011,12.2,8.734,8.734,0,0,0,.82.717,8.542,8.542,0,0,1-2.007-5.5A8.647,8.647,0,0,1,33.722,190.66Z" transform="translate(-29.8 -176.144)" fill="#fff"/>
    <path id="Path_11" data-name="Path 11" d="M387.055,100.75V99.522h-.011A7,7,0,0,1,382.8,98.1,7.006,7.006,0,0,0,387.055,100.75Z" transform="translate(-362.555 -92.531)" fill="#fff"/>
    <path id="Path_12" data-name="Path 12" d="M148.081,25.73a4.309,4.309,0,0,0,1.548-.2,4.133,4.133,0,0,0,2.862-3.917l.006-6.825V2.319h3.28A7.143,7.143,0,0,1,155.639,1H151.12V13.462l-.006,6.825a4.133,4.133,0,0,1-2.862,3.917,4.07,4.07,0,0,1-1.548.2,4.208,4.208,0,0,1-1.9-.579A4.184,4.184,0,0,0,148.081,25.73Z" transform="translate(-138.205 -1)" fill="#fff"/>
    <path id="Path_13" data-name="Path 13" d="M62.471,50.507a8.7,8.7,0,0,0,4.863-2.432,8.535,8.535,0,0,0,2.558-6.068l-.023-10.2A11.266,11.266,0,0,0,72.427,33.3a11.519,11.519,0,0,0,4.5.912V30.9a7.006,7.006,0,0,1-4.255-2.65A7.026,7.026,0,0,1,70,24H66.715V36.462l-.006,6.825A4.133,4.133,0,0,1,63.847,47.2a4.07,4.07,0,0,1-1.548.2,4.184,4.184,0,0,1-3.28-1.9,4.116,4.116,0,0,1,2.139-7.668,4.312,4.312,0,0,1,1.313.206v-3.4a8.728,8.728,0,0,0-6.125,2.541,8.59,8.59,0,0,0-2.546,6.1,8.48,8.48,0,0,0,2.007,5.5A8.723,8.723,0,0,0,61.158,50.6,8.332,8.332,0,0,0,62.471,50.507Z" transform="translate(-52.423 -22.681)" opacity="0"/>
  </g>
</svg>
