<svg xmlns="http://www.w3.org/2000/svg" width="71.495" height="71.495" viewBox="0 0 71.495 71.495">
  <g id="Icon_ionic-ios-arrow-dropdown" data-name="Icon ionic-ios-arrow-dropdown" transform="translate(-3.375 74.87) rotate(-90)">
    <path id="Path_965" data-name="Path 965" d="M10.949,15.395a3.33,3.33,0,0,0,0,4.692L27.4,36.483a3.313,3.313,0,0,0,4.572.1L48.175,20.431A3.312,3.312,0,1,0,43.5,15.739L29.579,29.453,15.641,15.378A3.314,3.314,0,0,0,10.949,15.395Z" transform="translate(9.543 15.942)" fill="#fff"/>
    <path id="Path_966" data-name="Path 966" d="M3.375,39.123A35.748,35.748,0,1,0,39.123,3.375,35.742,35.742,0,0,0,3.375,39.123ZM60.5,17.743A30.236,30.236,0,1,1,17.743,60.5,30.236,30.236,0,1,1,60.5,17.743Z" fill="#fff"/>
  </g>
</svg>
