<svg xmlns="http://www.w3.org/2000/svg" width="45.644" height="45.644" viewBox="0 0 45.644 45.644">
  <g id="Facebook_2" data-name="Facebook 2" transform="translate(9 9)">
    <g id="facebook">
      <path id="Path_5" data-name="Path 5" d="M24.189,0H3.456A3.459,3.459,0,0,0,0,3.456V24.189a3.459,3.459,0,0,0,3.456,3.456H24.189a3.459,3.459,0,0,0,3.456-3.456V3.456A3.459,3.459,0,0,0,24.189,0Z" fill="#1976d2"/>
      <path id="Path_18" data-name="Path 18" d="M24.189,0H3.456A3.459,3.459,0,0,0,0,3.456V24.189a3.459,3.459,0,0,0,3.456,3.456H24.189a3.459,3.459,0,0,0,3.456-3.456V3.456A3.459,3.459,0,0,0,24.189,0Z" fill="#1976d2"/>
      <path id="Path_6" data-name="Path 6" d="M204.958,104.639h-4.319v-3.456c0-.954.774-.864,1.728-.864h1.728V96h-3.456a5.183,5.183,0,0,0-5.183,5.183v3.456H192v4.319h3.456v9.5h5.183v-9.5h2.592Z" transform="translate(-181.633 -90.817)" fill="#fafafa"/>
    </g>
  </g>
</svg>
