<svg xmlns="http://www.w3.org/2000/svg" xmlns:xlink="http://www.w3.org/1999/xlink" width="45.831" height="45.836" viewBox="0 0 45.831 45.836">
  <defs>
    <linearGradient id="linear-gradient" x1="-0.079" y1="1.059" x2="1" gradientUnits="objectBoundingBox">
      <stop offset="0" stop-color="#fd5"/>
      <stop offset="0" stop-color="#ff8c47"/>
      <stop offset="0.318" stop-color="#ff543e"/>
      <stop offset="0.581" stop-color="#dc4184"/>
      <stop offset="1" stop-color="#c837ab"/>
    </linearGradient>
  </defs>
  <g id="Insta_2" data-name="Insta 2" transform="translate(9 9)">
    <g id="instagram">
      <path id="Path_3" data-name="Path 3" d="M1.745,1.894C-.435,4.159.011,6.566.011,13.876c0,6.07-1.059,12.156,4.484,13.589,1.731.445,17.068.445,18.8,0,2.308-.6,4.186-2.467,4.442-5.732.036-.456.036-15.245,0-15.71A5.97,5.97,0,0,0,22.5.133,24.965,24.965,0,0,0,18.407.006C6.644.012,4.066-.512,1.745,1.894Z" transform="translate(0.07 0.038)" fill="url(#linear-gradient)"/>
      <path id="Path_17" data-name="Path 17" d="M1.745,1.894C-.435,4.159.011,6.566.011,13.876c0,6.07-1.059,12.156,4.484,13.589,1.731.445,17.068.445,18.8,0,2.308-.6,4.186-2.467,4.442-5.732.036-.456.036-15.245,0-15.71A5.97,5.97,0,0,0,22.5.133,24.964,24.964,0,0,0,18.407.006C6.644.012,4.066-.512,1.745,1.894Z" transform="translate(0.07 0.038)" fill="url(#linear-gradient)"/>
      <path id="Path_4" data-name="Path 4" d="M12.366,3.139c-3.782,0-7.373-.336-8.745,3.184-.567,1.454-.484,3.342-.484,6.046,0,2.373-.076,4.6.484,6.045C4.99,21.937,8.61,21.6,12.364,21.6c3.621,0,7.355.377,8.744-3.185.568-1.469.484-3.329.484-6.045,0-3.606.2-5.934-1.55-7.681-1.771-1.771-4.165-1.549-7.68-1.549ZM11.539,4.8c7.889-.012,8.893-.889,8.339,11.293-.2,4.309-3.478,3.836-7.511,3.836-7.353,0-7.565-.21-7.565-7.567,0-7.442.583-7.558,6.737-7.565Zm5.753,1.532A1.107,1.107,0,1,0,18.4,7.442,1.107,1.107,0,0,0,17.293,6.335ZM12.366,7.629A4.74,4.74,0,1,0,17.1,12.37a4.74,4.74,0,0,0-4.738-4.74Zm0,1.663c4.067,0,4.072,6.153,0,6.153S8.294,9.293,12.366,9.293Z" transform="translate(1.888 1.891)" fill="#fff"/>
    </g>
  </g>
</svg>
