<svg xmlns="http://www.w3.org/2000/svg" xmlns:xlink="http://www.w3.org/1999/xlink" width="29.416" height="29.422" viewBox="0 0 29.416 29.422">
  <defs>
    <linearGradient id="linear-gradient" x1="-0.079" y1="1.059" x2="1" gradientUnits="objectBoundingBox">
      <stop offset="0" stop-color="#fd5"/>
      <stop offset="0" stop-color="#ff8c47"/>
      <stop offset="0.318" stop-color="#ff543e"/>
      <stop offset="0.581" stop-color="#dc4184"/>
      <stop offset="1" stop-color="#c837ab"/>
    </linearGradient>
  </defs>
  <g id="Insta" transform="translate(0)">
    <g id="instagram" transform="translate(3.008 3.193)" opacity="0">
      <path id="Path_3" data-name="Path 3" d="M1.407,1.582C-.367,3.48,0,5.5,0,11.625c0,5.089-.862,10.19,3.648,11.391,1.408.373,13.887.373,15.293,0a4.966,4.966,0,0,0,3.614-4.8c.029-.382.029-12.78,0-13.169C22.329,2.125,20.587.446,18.293.105A19.72,19.72,0,0,0,14.963,0C5.393,0,3.3-.435,1.407,1.582Z" transform="translate(0.07 0.038)" fill="url(#linear-gradient)"/>
      <path id="Path_4" data-name="Path 4" d="M11.473,3.139c-3.416,0-6.66-.313-7.9,2.963-.512,1.353-.437,3.11-.437,5.627,0,2.208-.069,4.283.437,5.626,1.236,3.278,4.506,2.964,7.9,2.964,3.271,0,6.644.351,7.9-2.964.513-1.367.437-3.1.437-5.626,0-3.356.18-5.522-1.4-7.148-1.6-1.648-3.762-1.441-6.937-1.441Zm-.747,1.548c7.125-.012,8.032-.828,7.532,10.51-.178,4.01-3.141,3.57-6.784,3.57-6.642,0-6.833-.2-6.833-7.042,0-6.925.527-7.034,6.085-7.04Zm5.2,1.426a1.031,1.031,0,1,0,1,1.03A1.016,1.016,0,0,0,15.923,6.112Zm-4.45,1.2a4.347,4.347,0,0,0-4.28,4.411,4.347,4.347,0,0,0,4.28,4.41,4.346,4.346,0,0,0,4.28-4.41,4.347,4.347,0,0,0-4.28-4.411Zm0,1.548c3.674,0,3.678,5.726,0,5.726S7.794,8.865,11.473,8.865Z" transform="translate(-0.12 -0.059)" fill="#fff"/>
    </g>
    <g id="instagram-2" data-name="instagram">
      <g id="Path_3-2" data-name="Path 3" transform="translate(0.07 0.038)" fill="none">
        <path d="M1.849,2C-.456,4.4.016,6.942.016,14.668c0,6.416-1.119,12.848,4.739,14.363,1.83.471,18.04.471,19.867,0,2.439-.629,4.424-2.608,4.7-6.058.038-.482.038-16.114,0-16.605C29.028,2.69,26.766.572,23.785.143A26.387,26.387,0,0,0,19.46.009C7.027.015,4.3-.539,1.849,2Z" stroke="none"/>
        <path d="M 10.62210845947266 1.96162223815918 C 5.409587860107422 1.96162223815918 4.374399185180664 2.266571044921875 3.289567947387695 3.391401290893555 C 1.975608825683594 4.75621223449707 1.936119079589844 6.160842895507812 1.992519378662109 11.31559181213379 C 2.003318786621094 12.30254173278809 2.015558242797852 13.42118167877197 2.015558242797852 14.66809177398682 C 2.015558242797852 15.59267234802246 1.993019104003906 16.51383209228516 1.971218109130859 17.4046630859375 C 1.908168792724609 19.98177337646484 1.848608016967773 22.41595268249512 2.350248336791992 24.20325088500977 C 2.809492111206055 25.83948135375977 3.649101257324219 26.67701530456543 5.244943618774414 27.09157562255859 C 5.904117584228516 27.2331600189209 9.425336837768555 27.38325119018555 14.67191886901855 27.38325119018555 C 19.93672180175781 27.38325119018555 23.46952056884766 27.23219871520996 24.12986373901367 27.0897216796875 C 26.00339126586914 26.60320091247559 27.13581848144531 25.09537506103516 27.32146453857422 22.84148025512695 C 27.35475730895996 21.82991790771484 27.3537712097168 7.484731674194336 27.3203296661377 6.49458122253418 C 27.1158332824707 3.999940872192383 25.75994300842285 2.447786331176758 23.49814796447754 2.122291564941406 L 23.46028900146484 2.116802215576172 C 22.93193817138672 2.040102005004883 22.75394821166992 2.014272689819336 19.46067810058594 2.00853157043457 L 19.25369834899902 2.008581161499023 C 17.19873809814453 2.008581161499023 15.4212589263916 1.993741989135742 13.85302829742432 1.980642318725586 C 12.63123893737793 1.970441818237305 11.57606887817383 1.961631774902344 10.62261772155762 1.96162223815918 L 10.62210845947266 1.96162223815918 M 10.62329292297363 -0.03837394714355469 C 12.86232757568359 -0.03835487365722656 15.72325038909912 0.0104217529296875 19.45979881286621 0.008531570434570312 C 22.96488952636719 0.01463127136230469 23.10177803039551 0.04397201538085938 23.78494834899902 0.1429615020751953 C 26.76574897766113 0.5719318389892578 29.02792930603027 2.689901351928711 29.31634902954102 6.364871978759766 C 29.35545921325684 6.856172561645508 29.35545921325684 22.48856163024902 29.31757926940918 22.9700813293457 C 29.0462589263916 26.42018127441406 27.06150817871094 28.39882278442383 24.62211799621582 29.02822113037109 C 22.79501724243164 29.50119209289551 6.584558486938477 29.50119209289551 4.755008697509766 29.03067207336426 C -1.103921890258789 27.51644134521484 0.01555824279785156 21.08432197570801 0.01555824279785156 14.66809177398682 C 0.01555824279785156 6.941722869873047 -0.4561920166015625 4.398452758789062 1.84876823425293 2.004281997680664 C 3.564432144165039 0.2253589630126953 5.412214279174805 -0.03841590881347656 10.62329292297363 -0.03837394714355469 Z" stroke="none" fill="#fff"/>
      </g>
      <path id="Path_4-2" data-name="Path 4" d="M12.892,3.14c-4,0-7.793-.356-9.243,3.365-.6,1.537-.512,3.533-.512,6.391,0,2.508-.08,4.865.512,6.389,1.447,3.723,5.273,3.366,9.241,3.366,3.828,0,7.774.4,9.242-3.366.6-1.552.512-3.518.512-6.389,0-3.811.21-6.272-1.638-8.119C19.134,2.905,16.6,3.14,12.888,3.14ZM12.018,4.9c8.338-.013,9.4-.94,8.814,11.937-.208,4.554-3.676,4.055-7.938,4.055-7.772,0-8-.222-8-8,0-7.866.616-7.989,7.12-8ZM18.1,6.517a1.17,1.17,0,1,0,1.17,1.17A1.17,1.17,0,0,0,18.1,6.517ZM12.892,7.886A5.01,5.01,0,1,0,17.9,12.9a5.01,5.01,0,0,0-5.008-5.01Zm0,1.758c4.3,0,4.3,6.5,0,6.5S8.588,9.644,12.892,9.644Z" transform="translate(2.174 2.177)" fill="#fff"/>
    </g>
  </g>
</svg>
