<svg xmlns="http://www.w3.org/2000/svg" width="30" height="30" viewBox="0 0 30 30">
  <g id="LinkedIn" transform="translate(0 0)">
    <g id="Layer_2" data-name="Layer 2" transform="translate(0 0)">
      <g id="linkedin-2" data-name="linkedin" transform="translate(0 0)">
        <g id="background" transform="translate(0 0)" fill="none" stroke="#fff" stroke-width="2">
          <rect width="30" height="30" rx="7" stroke="none"/>
          <rect x="1" y="1" width="28" height="28" rx="6" fill="none"/>
        </g>
        <g id="icon" transform="translate(4.601 5.378)">
          <path id="Path_14" data-name="Path 14" d="M38.649,35.482A2.628,2.628,0,1,1,36.024,33,2.556,2.556,0,0,1,38.649,35.482Z" transform="translate(-33.4 -33)" fill="#fff"/>
          <path id="Path_15" data-name="Path 15" d="M40.826,69.9V80.862a.6.6,0,0,1-.189.436.668.668,0,0,1-.46.181H37.411a.668.668,0,0,1-.461-.18.6.6,0,0,1-.19-.436V69.9a.634.634,0,0,1,.651-.616h2.766A.634.634,0,0,1,40.826,69.9Z" transform="translate(-36.172 -63.277)" fill="#fff"/>
          <path id="Path_16" data-name="Path 16" d="M83.1,74.687v5.308a.549.549,0,0,1-.175.4.614.614,0,0,1-.424.165H79.524A.615.615,0,0,1,79.1,80.4a.549.549,0,0,1-.175-.4V74.85c0-.768.238-3.362-2.122-3.362-1.828,0-2.2,1.776-2.274,2.573v5.934a.582.582,0,0,1-.59.566H71.067a.614.614,0,0,1-.422-.166.549.549,0,0,1-.174-.4V68.93a.549.549,0,0,1,.174-.4.614.614,0,0,1,.422-.166h2.873a.583.583,0,0,1,.6.566v.956c.679-.963,1.685-1.706,3.831-1.706C83.124,68.18,83.1,72.38,83.1,74.687Z" transform="translate(-63.984 -62.359)" fill="#fff"/>
        </g>
      </g>
    </g>
  </g>
</svg>
