<svg xmlns="http://www.w3.org/2000/svg" width="46" height="47" viewBox="0 0 46 47">
  <g id="LinkedIn_2" data-name="LinkedIn 2" transform="translate(9 9)">
    <g id="linkedin">
      <rect id="background" width="28" height="29" rx="7" fill="#0077b5"/>
      <rect id="background-2" data-name="background" width="28" height="29" rx="7" fill="#0077b5"/>
      <g id="icon" transform="translate(4.335 5.248)">
        <path id="Path_14" data-name="Path 14" d="M38.345,35.422A2.473,2.473,0,1,1,35.872,33,2.448,2.448,0,0,1,38.345,35.422Z" transform="translate(-33.4 -33)" fill="#fff"/>
        <path id="Path_15" data-name="Path 15" d="M40.591,69.881v10.7a.593.593,0,0,1-.178.426.618.618,0,0,1-.434.177H37.373a.618.618,0,0,1-.434-.175.593.593,0,0,1-.179-.425v-10.7a.607.607,0,0,1,.613-.6h2.606A.607.607,0,0,1,40.591,69.881Z" transform="translate(-36.206 -63.422)" fill="#fff"/>
        <path id="Path_16" data-name="Path 16" d="M82.366,74.529v5.18a.545.545,0,0,1-.165.391.568.568,0,0,1-.4.161H79a.568.568,0,0,1-.4-.161.545.545,0,0,1-.165-.391v-5.02c0-.749.224-3.281-2-3.281-1.722,0-2.074,1.733-2.143,2.511v5.79a.558.558,0,0,1-.556.552H71.032a.568.568,0,0,1-.4-.162.545.545,0,0,1-.164-.39v-10.8a.545.545,0,0,1,.164-.39.568.568,0,0,1,.4-.162h2.706a.558.558,0,0,1,.564.552v.933a3.862,3.862,0,0,1,3.61-1.665C82.392,68.18,82.366,72.278,82.366,74.529Z" transform="translate(-64.36 -62.5)" fill="#fff"/>
      </g>
    </g>
  </g>
</svg>
