<svg xmlns="http://www.w3.org/2000/svg" width="1685.876" height="218.398" viewBox="0 0 1685.876 218.398">
  <g id="OUR_STORY_text" data-name="OUR STORY text" transform="translate(-119.415 -1201)">
    <path id="OUR_STORY" data-name="OUR STORY" d="M-737.12-214.555a118.366,118.366,0,0,1,27.478,3.125,104.363,104.363,0,0,1,24.825,9.388,90.6,90.6,0,0,1,21.106,15.511,98.1,98.1,0,0,1,16.246,21.416A100.991,100.991,0,0,1-637.1-137.955a145.682,145.682,0,0,1,3.442,32.6,145.682,145.682,0,0,1-3.442,32.6A100.991,100.991,0,0,1-647.465-45.6a98.1,98.1,0,0,1-16.246,21.416A90.606,90.606,0,0,1-684.816-8.67,104.367,104.367,0,0,1-709.641.718,118.366,118.366,0,0,1-737.12,3.843,118.379,118.379,0,0,1-764.74.691a103.247,103.247,0,0,1-24.841-9.467,91.1,91.1,0,0,1-21.052-15.588A98.483,98.483,0,0,1-826.827-45.8a101.3,101.3,0,0,1-10.329-27.108,145,145,0,0,1-3.43-32.445,146.181,146.181,0,0,1,3.429-32.6,101.214,101.214,0,0,1,10.329-27.16,97.921,97.921,0,0,1,16.195-21.416,90.317,90.317,0,0,1,21.055-15.512,103.773,103.773,0,0,1,24.84-9.388A119.318,119.318,0,0,1-737.12-214.555Zm0,215.405a115.376,115.376,0,0,0,26.783-3.043,101.372,101.372,0,0,0,24.113-9.117,87.62,87.62,0,0,0,20.409-15,95.111,95.111,0,0,0,15.747-20.764,98,98,0,0,0,10.056-26.358,142.677,142.677,0,0,0,3.366-31.926,142.677,142.677,0,0,0-3.366-31.926,98,98,0,0,0-10.056-26.358A95.111,95.111,0,0,0-665.815-184.4a87.617,87.617,0,0,0-20.409-15,101.367,101.367,0,0,0-24.112-9.117,115.376,115.376,0,0,0-26.783-3.043,116.322,116.322,0,0,0-26.924,3.043,100.786,100.786,0,0,0-24.123,9.117,87.322,87.322,0,0,0-20.358,15,94.916,94.916,0,0,0-15.7,20.764,98.224,98.224,0,0,0-10.018,26.358,143.2,143.2,0,0,0-3.353,31.927,142.007,142.007,0,0,0,3.353,31.772,98.315,98.315,0,0,0,10.019,26.308,95.485,95.485,0,0,0,15.7,20.79A88.113,88.113,0,0,0-788.162-11.41a100.265,100.265,0,0,0,24.121,9.192A115.392,115.392,0,0,0-737.12.85ZM-66.333-214.555A126.732,126.732,0,0,1-42.373-212.4a90.812,90.812,0,0,1,20.585,6.482A74.547,74.547,0,0,1-5.034-195.485,63.729,63.729,0,0,1,7.455-181.476a62.071,62.071,0,0,1,7.777,17.112,73.689,73.689,0,0,1,2.654,19.686l.007,1.5H-39.458l-.11-1.377a24.379,24.379,0,0,0-2.175-8.586,18.925,18.925,0,0,0-4.924-6.36,21.034,21.034,0,0,0-8-4,44.051,44.051,0,0,0-11.667-1.379c-5.662,0-10.324.674-13.857,2a16.3,16.3,0,0,0-7.567,5.174,12.347,12.347,0,0,0-2.47,7.331l0,.048a11.46,11.46,0,0,0,1.213,6.031,14.066,14.066,0,0,0,4.594,4.891,37.376,37.376,0,0,0,8.561,4.173,94.676,94.676,0,0,0,12.7,3.424l.012,0,17.2,3.686a131.421,131.421,0,0,1,30.134,9.844,85.216,85.216,0,0,1,11.464,6.684,63.6,63.6,0,0,1,9.227,7.8,56,56,0,0,1,7.034,8.876,52.145,52.145,0,0,1,4.915,9.922A66.88,66.88,0,0,1,20.752-62.37v.02a70.207,70.207,0,0,1-2.7,19.51,54.732,54.732,0,0,1-7.922,16.366A58.866,58.866,0,0,1-2.616-13.526a73.882,73.882,0,0,1-17.15,9.382,104.005,104.005,0,0,1-21.2,5.69A155.3,155.3,0,0,1-65.923,3.433,155.214,155.214,0,0,1-91.756,1.39a110.8,110.8,0,0,1-22.378-6.151,73.352,73.352,0,0,1-18.419-10.493,64.982,64.982,0,0,1-13.806-15,65.159,65.159,0,0,1-8.635-19.658,97.823,97.823,0,0,1-2.928-24.318l-.006-1.5h56.977l.075,1.417a36.8,36.8,0,0,0,1.4,8.508,26.227,26.227,0,0,0,3.17,6.926,24.052,24.052,0,0,0,4.88,5.422A27.715,27.715,0,0,0-84.834-49.5a45.727,45.727,0,0,0,18.091,3.256A43.431,43.431,0,0,0-52-48.405a19.238,19.238,0,0,0,8.66-5.771,13.163,13.163,0,0,0,2.951-8.183,11.722,11.722,0,0,0-2.777-7.487c-1.851-2.227-4.984-4.29-9.314-6.132a107.141,107.141,0,0,0-18.265-5.393l-20.88-4.5a122.426,122.426,0,0,1-25.2-8.179,78.951,78.951,0,0,1-19.344-12.383,47.915,47.915,0,0,1-7.229-7.99,46.4,46.4,0,0,1-5.154-9.34,52.234,52.234,0,0,1-3.061-10.642,66.326,66.326,0,0,1-.98-11.9,64.343,64.343,0,0,1,2.689-19.162,57.074,57.074,0,0,1,8.292-16.677A66.987,66.987,0,0,1-128.424-195.8a81.194,81.194,0,0,1,17.418-10.237,98.154,98.154,0,0,1,20.936-6.4A127.358,127.358,0,0,1-66.333-214.555Zm81.2,68.389a69.916,69.916,0,0,0-2.52-17.382,59.083,59.083,0,0,0-7.4-16.289,60.75,60.75,0,0,0-11.9-13.352A71.566,71.566,0,0,0-23.036-203.2a87.813,87.813,0,0,0-19.906-6.264,123.744,123.744,0,0,0-23.391-2.1A124.367,124.367,0,0,0-89.51-209.49a95.143,95.143,0,0,0-20.3,6.2,78.206,78.206,0,0,0-16.777,9.855A63.99,63.99,0,0,0-139.19-180.4a54.078,54.078,0,0,0-7.859,15.8,61.359,61.359,0,0,0-2.558,18.277v.014a63.328,63.328,0,0,0,.933,11.366A49.262,49.262,0,0,0-145.79-124.9a43.411,43.411,0,0,0,4.821,8.737,44.9,44.9,0,0,0,6.778,7.489,75.959,75.959,0,0,0,18.613,11.906A119.444,119.444,0,0,0-91-88.8l20.889,4.505a110,110,0,0,1,18.8,5.562c4.773,2.03,8.287,4.376,10.445,6.973A14.807,14.807,0,0,1-37.4-62.389v.062A16.27,16.27,0,0,1-41-52.315,22.15,22.15,0,0,1-50.973-45.6a46.35,46.35,0,0,1-15.77,2.344,48.667,48.667,0,0,1-19.277-3.5A28.349,28.349,0,0,1-98.81-57.237a29.212,29.212,0,0,1-3.536-7.714,38.7,38.7,0,0,1-1.422-7.786h-51.147A93.467,93.467,0,0,0-152.1-50.669a62.163,62.163,0,0,0,8.232,18.759A61.991,61.991,0,0,0-130.7-17.6a70.364,70.364,0,0,0,17.67,10.06A107.784,107.784,0,0,0-91.255-1.561a152.2,152.2,0,0,0,25.332,2,152.31,152.31,0,0,0,24.47-1.849A101,101,0,0,0-20.862-6.93a70.89,70.89,0,0,0,16.456-9A55.872,55.872,0,0,0,7.7-28.213a51.743,51.743,0,0,0,7.487-15.474,67.2,67.2,0,0,0,2.575-18.665,63.9,63.9,0,0,0-3.747-21.6A49.149,49.149,0,0,0,9.381-93.3a53.008,53.008,0,0,0-6.659-8.4A70.338,70.338,0,0,0-17.13-115.58a128.465,128.465,0,0,0-29.446-9.607l-17.191-3.684h0a97.708,97.708,0,0,1-13.1-3.538,40.333,40.333,0,0,1-9.253-4.529,17,17,0,0,1-5.542-5.961,14.4,14.4,0,0,1-1.553-7.56,15.446,15.446,0,0,1,3.059-9.027,19.2,19.2,0,0,1,8.916-6.19c3.871-1.456,8.888-2.195,14.911-2.195a47,47,0,0,1,12.469,1.488,23.984,23.984,0,0,1,9.125,4.6c4.522,3.808,7.215,9.058,8.016,15.619Zm315.207-68.389a118.366,118.366,0,0,1,27.478,3.125,104.362,104.362,0,0,1,24.825,9.388,90.6,90.6,0,0,1,21.106,15.511,98.1,98.1,0,0,1,16.246,21.416A100.991,100.991,0,0,1,430.1-137.955a145.663,145.663,0,0,1,3.442,32.6,145.663,145.663,0,0,1-3.442,32.6A100.991,100.991,0,0,1,419.733-45.6a98.1,98.1,0,0,1-16.246,21.416A90.606,90.606,0,0,1,382.382-8.67,104.367,104.367,0,0,1,357.557.718a118.366,118.366,0,0,1-27.478,3.125A118.379,118.379,0,0,1,302.458.691a103.247,103.247,0,0,1-24.841-9.467,91.092,91.092,0,0,1-21.052-15.588A98.483,98.483,0,0,1,240.371-45.8a101.3,101.3,0,0,1-10.329-27.108,145,145,0,0,1-3.43-32.445,146.181,146.181,0,0,1,3.429-32.6,101.211,101.211,0,0,1,10.329-27.16,97.906,97.906,0,0,1,16.195-21.416,90.308,90.308,0,0,1,21.054-15.512,103.772,103.772,0,0,1,24.84-9.388A119.319,119.319,0,0,1,330.078-214.555Zm0,215.405a115.375,115.375,0,0,0,26.783-3.043,101.373,101.373,0,0,0,24.113-9.117,87.619,87.619,0,0,0,20.409-15A95.113,95.113,0,0,0,417.13-47.073a98,98,0,0,0,10.056-26.358,142.676,142.676,0,0,0,3.366-31.926,142.676,142.676,0,0,0-3.366-31.926A98,98,0,0,0,417.13-163.64,95.113,95.113,0,0,0,401.383-184.4a87.616,87.616,0,0,0-20.409-15,101.368,101.368,0,0,0-24.112-9.117,115.376,115.376,0,0,0-26.783-3.043,116.322,116.322,0,0,0-26.924,3.043,100.787,100.787,0,0,0-24.123,9.117,87.325,87.325,0,0,0-20.358,15,94.917,94.917,0,0,0-15.7,20.764,98.22,98.22,0,0,0-10.019,26.358,143.2,143.2,0,0,0-3.353,31.927,142,142,0,0,0,3.353,31.772,98.308,98.308,0,0,0,10.019,26.308,95.483,95.483,0,0,0,15.7,20.79A88.11,88.11,0,0,0,279.036-11.41a100.264,100.264,0,0,0,24.121,9.192A115.393,115.393,0,0,0,330.078.85ZM-610.437-211.689h59.915v130.9a36.823,36.823,0,0,0,1.031,8.841,31.019,31.019,0,0,0,3.076,7.777,29.908,29.908,0,0,0,4.886,6.472,29.918,29.918,0,0,0,6.472,4.886,31.027,31.027,0,0,0,7.777,3.076,36.827,36.827,0,0,0,8.841,1.031,37.215,37.215,0,0,0,8.906-1.031,30.563,30.563,0,0,0,7.759-3.074,29.884,29.884,0,0,0,6.435-4.886,30.139,30.139,0,0,0,4.876-6.475,31.021,31.021,0,0,0,3.076-7.777,36.826,36.826,0,0,0,1.031-8.841v-130.9h59.916V-75.871a85.642,85.642,0,0,1-2.908,22.729,69.109,69.109,0,0,1-8.752,19.5,73.108,73.108,0,0,1-13.94,15.782,82,82,0,0,1-18.47,11.681,99.315,99.315,0,0,1-22.349,7.213,130.815,130.815,0,0,1-25.581,2.4,132.152,132.152,0,0,1-25.734-2.4,99.191,99.191,0,0,1-22.4-7.213A81.445,81.445,0,0,1-585.019-17.86a72.309,72.309,0,0,1-13.865-15.786,69.4,69.4,0,0,1-8.672-19.5,86.363,86.363,0,0,1-2.881-22.726Zm56.923,2.993h-53.93V-75.871a83.378,83.378,0,0,0,2.775,21.937,66.419,66.419,0,0,0,8.3,18.661A69.317,69.317,0,0,0-583.081-20.14a78.447,78.447,0,0,0,17.77,11.25A96.19,96.19,0,0,0-543.587-1.9,129.17,129.17,0,0,0-518.438.44,127.824,127.824,0,0,0-493.444-1.9,96.315,96.315,0,0,0-471.77-8.89a79.006,79.006,0,0,0,17.8-11.251A70.107,70.107,0,0,0-440.6-35.278a66.114,66.114,0,0,0,8.371-18.659,82.659,82.659,0,0,0,2.8-21.934V-208.7h-53.93v127.91a39.817,39.817,0,0,1-1.119,9.561,34.019,34.019,0,0,1-3.374,8.527A32.537,32.537,0,0,1-500.3-50.2a33.552,33.552,0,0,1-8.519,3.376,40.2,40.2,0,0,1-9.624,1.119A39.811,39.811,0,0,1-528-46.828a34.02,34.02,0,0,1-8.527-3.374,32.435,32.435,0,0,1-12.5-12.5,34.007,34.007,0,0,1-3.374-8.527,39.813,39.813,0,0,1-1.119-9.561Zm587.245-2.993H218.958v48.858H155.892V.976H96.8V-162.83H33.731ZM215.965-208.7H36.723v42.873H99.789V-2.017H152.9V-165.823h63.065Zm240.8-2.993h92a109.354,109.354,0,0,1,22.188,2.156,82.918,82.918,0,0,1,19.315,6.492,68.5,68.5,0,0,1,15.908,10.6A64.406,64.406,0,0,1,618.12-178a65.456,65.456,0,0,1,7.467,17.968,85.932,85.932,0,0,1,2.478,21.1A83.406,83.406,0,0,1,625.52-117.8a61.071,61.071,0,0,1-7.677,17.657A61.694,61.694,0,0,1,606.5-87.033a66.116,66.116,0,0,1-13.479,9.007l43.031,79H570.794l-.422-.794L533.981-68.232h-17.3V.976H456.76ZM516.676-71.225c38.115.97,51.442-.291,62.812-4.2a88.642,88.642,0,0,0,25.046-13.867,58.7,58.7,0,0,0,10.795-12.474,58.067,58.067,0,0,0,7.3-16.794,80.416,80.416,0,0,0,2.446-20.377,82.948,82.948,0,0,0-2.385-20.363,62.471,62.471,0,0,0-7.122-17.148,61.421,61.421,0,0,0-11.393-13.768,65.515,65.515,0,0,0-15.215-10.133,79.93,79.93,0,0,0-18.617-6.254A106.362,106.362,0,0,0,548.76-208.7H459.753V-2.017h53.93V-166.233h21.563a49.921,49.921,0,0,1,17.682,2.811,23.992,23.992,0,0,1,11.661,8.956,22.612,22.612,0,0,1,3.087,6.973,33.991,33.991,0,0,1,1.008,8.556,33.008,33.008,0,0,1-1.01,8.447,21.732,21.732,0,0,1-3.1,6.842,23.193,23.193,0,0,1-11.686,8.594,53.513,53.513,0,0,1-17.646,2.593h-18.57Zm18.57-44.228a50.584,50.584,0,0,0,16.651-2.423,22.75,22.75,0,0,0,5.909-3.059,18.721,18.721,0,0,0,4.314-4.42,18.753,18.753,0,0,0,2.662-5.9,30.034,30.034,0,0,0,.909-7.678,31.013,31.013,0,0,0-.911-7.8,19.632,19.632,0,0,0-2.672-6.054,19.6,19.6,0,0,0-4.329-4.59,23.422,23.422,0,0,0-5.919-3.245,46.98,46.98,0,0,0-16.615-2.615h-18.57v47.787Zm-21.563,2.993v0ZM631.01-2.017,590.318-76.726q-.538.246-1.08.484a91.318,91.318,0,0,1-19.789,6.013,123.581,123.581,0,0,1-22.736,2h-9.342L572.592-2.017ZM629.8-211.689h66.915l.408.848,40.422,84.078,40.83-84.926h66.915L767.3-66.077V.976H707.793V-66.077Zm65.033,2.993H634.8L710.786-66.828V-2.017h53.521V-66.828l.177-.331L840.293-208.7H780.258l-40.952,85.179h-3.52l-.408-.848ZM-737.12-165a49.584,49.584,0,0,1,13.421,1.733,37.5,37.5,0,0,1,11.235,5.24,38.132,38.132,0,0,1,8.845,8.6,49.005,49.005,0,0,1,6.34,11.748,72.6,72.6,0,0,1,3.805,14.728,114.876,114.876,0,0,1,1.259,17.6,114.877,114.877,0,0,1-1.259,17.6,72.6,72.6,0,0,1-3.805,14.727,49,49,0,0,1-6.34,11.748,38.126,38.126,0,0,1-8.845,8.6,37.5,37.5,0,0,1-11.235,5.24,49.584,49.584,0,0,1-13.421,1.733,49.585,49.585,0,0,1-13.421-1.733,37.5,37.5,0,0,1-11.235-5.24,38.124,38.124,0,0,1-8.845-8.6,49,49,0,0,1-6.34-11.748,72.6,72.6,0,0,1-3.805-14.727,114.877,114.877,0,0,1-1.259-17.6,114.876,114.876,0,0,1,1.259-17.6,72.6,72.6,0,0,1,3.805-14.728,49,49,0,0,1,6.34-11.748,38.129,38.129,0,0,1,8.845-8.6,37.5,37.5,0,0,1,11.235-5.24A49.585,49.585,0,0,1-737.12-165Zm0,116.3a46.6,46.6,0,0,0,12.609-1.62,34.513,34.513,0,0,0,10.342-4.819,35.138,35.138,0,0,0,8.15-7.931A46.014,46.014,0,0,0-700.073-74.1a69.6,69.6,0,0,0,3.643-14.118,111.879,111.879,0,0,0,1.223-17.135,111.881,111.881,0,0,0-1.223-17.135,69.6,69.6,0,0,0-3.643-14.118,46.012,46.012,0,0,0-5.945-11.032,35.141,35.141,0,0,0-8.15-7.931,34.517,34.517,0,0,0-10.342-4.819,46.6,46.6,0,0,0-12.609-1.62,46.6,46.6,0,0,0-12.609,1.62,34.514,34.514,0,0,0-10.341,4.819,35.14,35.14,0,0,0-8.15,7.931,46.008,46.008,0,0,0-5.945,11.032,69.593,69.593,0,0,0-3.643,14.118,111.872,111.872,0,0,0-1.224,17.135,111.87,111.87,0,0,0,1.224,17.135A69.587,69.587,0,0,0-774.165-74.1a46.01,46.01,0,0,0,5.945,11.032,35.138,35.138,0,0,0,8.15,7.931,34.513,34.513,0,0,0,10.341,4.819A46.6,46.6,0,0,0-737.12-48.7ZM330.078-165a49.587,49.587,0,0,1,13.421,1.733,37.5,37.5,0,0,1,11.235,5.24,38.126,38.126,0,0,1,8.845,8.6,49,49,0,0,1,6.34,11.748,72.6,72.6,0,0,1,3.805,14.728,114.877,114.877,0,0,1,1.259,17.6,114.877,114.877,0,0,1-1.259,17.6,72.6,72.6,0,0,1-3.805,14.727,49,49,0,0,1-6.34,11.748,38.125,38.125,0,0,1-8.845,8.6,37.5,37.5,0,0,1-11.235,5.24,49.586,49.586,0,0,1-13.421,1.733,49.584,49.584,0,0,1-13.421-1.733,37.5,37.5,0,0,1-11.235-5.24,38.123,38.123,0,0,1-8.845-8.6,49,49,0,0,1-6.34-11.748,72.6,72.6,0,0,1-3.805-14.727,114.877,114.877,0,0,1-1.259-17.6,114.876,114.876,0,0,1,1.259-17.6,72.6,72.6,0,0,1,3.805-14.728,49,49,0,0,1,6.34-11.748,38.128,38.128,0,0,1,8.845-8.6,37.5,37.5,0,0,1,11.235-5.24A49.585,49.585,0,0,1,330.078-165Zm0,116.3a46.6,46.6,0,0,0,12.609-1.62,34.514,34.514,0,0,0,10.341-4.819,35.142,35.142,0,0,0,8.15-7.931A46.017,46.017,0,0,0,367.125-74.1a69.6,69.6,0,0,0,3.643-14.118,111.87,111.87,0,0,0,1.224-17.135,111.872,111.872,0,0,0-1.224-17.135,69.6,69.6,0,0,0-3.643-14.118,46.014,46.014,0,0,0-5.946-11.032,35.14,35.14,0,0,0-8.15-7.931,34.513,34.513,0,0,0-10.342-4.819,46.6,46.6,0,0,0-12.609-1.62,46.6,46.6,0,0,0-12.609,1.62,34.514,34.514,0,0,0-10.341,4.819,35.143,35.143,0,0,0-8.15,7.931,46.012,46.012,0,0,0-5.946,11.032,69.593,69.593,0,0,0-3.643,14.118,111.865,111.865,0,0,0-1.224,17.135,111.863,111.863,0,0,0,1.224,17.135A69.587,69.587,0,0,0,293.032-74.1a46.014,46.014,0,0,0,5.946,11.032,35.141,35.141,0,0,0,8.15,7.931,34.513,34.513,0,0,0,10.342,4.819A46.6,46.6,0,0,0,330.078-48.7Z" transform="translate(960 1415.555)" fill="#fff"/>
    <path id="OUR_STORY-2" data-name="OUR STORY" d="M459.915-211.682h92a109.354,109.354,0,0,1,22.188,2.156,82.917,82.917,0,0,1,19.315,6.492,68.493,68.493,0,0,1,15.908,10.6A64.406,64.406,0,0,1,621.274-178a65.458,65.458,0,0,1,7.467,17.968,85.935,85.935,0,0,1,2.477,21.1,83.4,83.4,0,0,1-2.544,21.138A61.071,61.071,0,0,1,621-100.135a61.7,61.7,0,0,1-11.346,13.109,66.117,66.117,0,0,1-13.48,9.007L639.2.983H573.948l-.422-.794L537.135-68.225h-17.3V.983H459.915ZM519.83-71.218c38.115.97,51.442-.291,62.812-4.2a88.642,88.642,0,0,0,25.046-13.867,58.694,58.694,0,0,0,10.795-12.474,58.067,58.067,0,0,0,7.3-16.794,80.417,80.417,0,0,0,2.446-20.377,82.946,82.946,0,0,0-2.385-20.363,62.469,62.469,0,0,0-7.122-17.148,61.425,61.425,0,0,0-11.393-13.768,65.516,65.516,0,0,0-15.215-10.133,79.93,79.93,0,0,0-18.617-6.254,106.363,106.363,0,0,0-21.579-2.093H462.908V-2.01h53.93V-166.226H538.4a49.921,49.921,0,0,1,17.682,2.811,23.992,23.992,0,0,1,11.661,8.956,22.612,22.612,0,0,1,3.087,6.973,33.991,33.991,0,0,1,1.008,8.556,33.008,33.008,0,0,1-1.01,8.447,21.732,21.732,0,0,1-3.1,6.842,23.193,23.193,0,0,1-11.686,8.594,53.513,53.513,0,0,1-17.646,2.593H519.83Zm18.57-44.228a50.584,50.584,0,0,0,16.651-2.423,22.75,22.75,0,0,0,5.909-3.059,18.722,18.722,0,0,0,4.314-4.42,18.754,18.754,0,0,0,2.662-5.9,30.033,30.033,0,0,0,.909-7.678,31.013,31.013,0,0,0-.911-7.8,19.631,19.631,0,0,0-2.672-6.054,19.6,19.6,0,0,0-4.329-4.59,23.422,23.422,0,0,0-5.919-3.245,46.98,46.98,0,0,0-16.615-2.615H519.83v47.787Zm-21.563,2.993v0ZM634.165-2.01,593.472-76.719q-.538.246-1.08.484A91.318,91.318,0,0,1,572.6-70.222a123.581,123.581,0,0,1-22.736,2h-9.342L575.746-2.01Z" transform="translate(102.922 1415.674)" fill="#fff"/>
  </g>
</svg>
