<svg xmlns="http://www.w3.org/2000/svg" width="47.806" height="47.806" viewBox="0 0 47.806 47.806">
  <g id="discord_hover" data-name="discord hover" transform="translate(9 9)">
    <g id="Group_248" data-name="Group 248" transform="translate(-3268.194 -5127.194)">
      <g id="discord" transform="translate(3268.194 5127.194)">
        <path id="Path_971" data-name="Path 971" d="M164.967,234.938a1.946,1.946,0,1,1-1.933-2.168A2.056,2.056,0,0,1,164.967,234.938Z" transform="translate(-151.733 -219.235)" fill="#5865f2"/>
        <path id="Path_972" data-name="Path 972" d="M287.9,234.938a1.946,1.946,0,1,1-1.933-2.168A2.05,2.05,0,0,1,287.9,234.938Z" transform="translate(-267.515 -219.235)" fill="#5865f2"/>
        <path id="Path_973" data-name="Path 973" d="M26.585,0H3.221A3.221,3.221,0,0,0,0,3.221V26.585a3.221,3.221,0,0,0,3.221,3.221H26.585a3.221,3.221,0,0,0,3.221-3.221V3.221A3.221,3.221,0,0,0,26.585,0ZM25.531,20.316a.067.067,0,0,1-.028.049,17.775,17.775,0,0,1-5.38,2.715.067.067,0,0,1-.075-.026,14.325,14.325,0,0,1-1.1-1.787.068.068,0,0,1,.037-.1,11.05,11.05,0,0,0,1.679-.8.069.069,0,0,0,.006-.115c-.113-.084-.226-.173-.334-.262a.065.065,0,0,0-.07-.008,12.723,12.723,0,0,1-10.811,0,.066.066,0,0,0-.07.009c-.108.088-.22.177-.333.261a.069.069,0,0,0,.006.115,11.75,11.75,0,0,0,1.678.8.068.068,0,0,1,.038.095,12.749,12.749,0,0,1-1.1,1.787.069.069,0,0,1-.076.025,17.829,17.829,0,0,1-5.372-2.715.074.074,0,0,1-.028-.051A18.159,18.159,0,0,1,7.379,8.071a.06.06,0,0,1,.029-.024,17.671,17.671,0,0,1,4.378-1.358.069.069,0,0,1,.07.033,11.438,11.438,0,0,1,.554,1.12,16.4,16.4,0,0,1,4.918,0,12.249,12.249,0,0,1,.545-1.12.066.066,0,0,1,.07-.033,17.754,17.754,0,0,1,4.378,1.358.05.05,0,0,1,.028.026A18.034,18.034,0,0,1,25.531,20.316Z" fill="#5865f2"/>
      </g>
      <g id="discord-2" data-name="discord" transform="translate(3268.194 5127.194)">
        <path id="Path_971-2" data-name="Path 971" d="M165.3,235.172a2.117,2.117,0,1,1-2.1-2.4A2.26,2.26,0,0,1,165.3,235.172Z" transform="translate(-152.154 -219.703)" fill="#5865f2"/>
        <path id="Path_972-2" data-name="Path 972" d="M288.449,235.172a2.217,2.217,0,1,1-2.21-2.4A2.3,2.3,0,0,1,288.449,235.172Z" transform="translate(-268.067 -219.703)" fill="#5865f2"/>
        <path id="Path_973-2" data-name="Path 973" d="M26.585,0H3.221A3.221,3.221,0,0,0,0,3.221V26.585a3.221,3.221,0,0,0,3.221,3.221H26.585a3.221,3.221,0,0,0,3.221-3.221V3.221A3.221,3.221,0,0,0,26.585,0ZM25.531,20.316a.067.067,0,0,1-.028.049,17.775,17.775,0,0,1-5.38,2.715.067.067,0,0,1-.075-.026,14.325,14.325,0,0,1-1.1-1.787.068.068,0,0,1,.037-.1,11.05,11.05,0,0,0,1.679-.8.069.069,0,0,0,.006-.115c-.113-.084-.226-.173-.334-.262a.065.065,0,0,0-.07-.008,12.723,12.723,0,0,1-10.811,0,.066.066,0,0,0-.07.009c-.108.088-.22.177-.333.261a.069.069,0,0,0,.006.115,11.75,11.75,0,0,0,1.678.8.068.068,0,0,1,.038.095,12.749,12.749,0,0,1-1.1,1.787.069.069,0,0,1-.076.025,17.829,17.829,0,0,1-5.372-2.715.074.074,0,0,1-.028-.051A18.159,18.159,0,0,1,7.379,8.071a.06.06,0,0,1,.029-.024,17.671,17.671,0,0,1,4.378-1.358.069.069,0,0,1,.07.033,11.438,11.438,0,0,1,.554,1.12,16.4,16.4,0,0,1,4.918,0,12.249,12.249,0,0,1,.545-1.12.066.066,0,0,1,.07-.033,17.754,17.754,0,0,1,4.378,1.358.05.05,0,0,1,.028.026A18.034,18.034,0,0,1,25.531,20.316Z" fill="#5865f2"/>
      </g>
    </g>
    <g id="Group_249" data-name="Group 249" transform="translate(-3226.137 -5127.318)">
      <path id="Subtraction_2" data-name="Subtraction 2" d="M16.01,16.646a.068.068,0,0,1-.056-.029,14.646,14.646,0,0,1-1.1-1.814.073.073,0,0,1,0-.058.064.064,0,0,1,.04-.038,11.045,11.045,0,0,0,1.681-.811.071.071,0,0,0,.033-.058.068.068,0,0,0-.027-.058c-.108-.081-.217-.168-.335-.267A.063.063,0,0,0,16.2,13.5a.064.064,0,0,0-.029.007,12.649,12.649,0,0,1-5.4,1.223A12.854,12.854,0,0,1,5.35,13.5a.058.058,0,0,0-.027-.006.063.063,0,0,0-.042.016c-.114.093-.226.182-.334.265a.068.068,0,0,0-.027.058.07.07,0,0,0,.034.058,11.607,11.607,0,0,0,1.68.811.072.072,0,0,1,.041.041.067.067,0,0,1,0,.056,12.956,12.956,0,0,1-1.1,1.814.071.071,0,0,1-.056.028l-.019,0A17.854,17.854,0,0,1,.117,13.886a.071.071,0,0,1-.029-.051A18.672,18.672,0,0,1,3.271,1.405.049.049,0,0,1,3.3,1.38,17.476,17.476,0,0,1,7.682,0h.009a.068.068,0,0,1,.061.035,11.612,11.612,0,0,1,.555,1.137A16.059,16.059,0,0,1,10.757.984a16.547,16.547,0,0,1,2.475.188c.121-.289.337-.76.545-1.137A.067.067,0,0,1,13.835,0l.014,0A17.554,17.554,0,0,1,18.232,1.38a.047.047,0,0,1,.028.026,19.378,19.378,0,0,1,2.673,5.808,18.8,18.8,0,0,1,.512,6.622.063.063,0,0,1-.029.049,17.8,17.8,0,0,1-5.386,2.757ZM14.1,6.952a2.084,2.084,0,0,0-1.936,2.2,2.083,2.083,0,0,0,1.936,2.2,2.059,2.059,0,0,0,1.936-2.2,2.3,2.3,0,0,0-.628-1.632A1.821,1.821,0,0,0,14.1,6.952Zm-7.156,0a2.084,2.084,0,0,0-1.936,2.2,2.083,2.083,0,0,0,1.936,2.2,2.083,2.083,0,0,0,1.936-2.2A2.3,2.3,0,0,0,8.25,7.522,1.82,1.82,0,0,0,6.942,6.952Z" transform="translate(3230.245 5133.801)" fill="#fff"/>
    </g>
  </g>
</svg>
