<svg id="discord" xmlns="http://www.w3.org/2000/svg" width="30" height="30" viewBox="0 0 30 30">
  <g id="Group_249" data-name="Group 249" transform="translate(-3226 -5127)">
    <g id="Rectangle_166" data-name="Rectangle 166" transform="translate(3226 5127)" fill="none" stroke="#fff" stroke-linecap="round" stroke-linejoin="round" stroke-width="2">
      <rect width="30" height="30" rx="3" stroke="none"/>
      <rect x="1" y="1" width="28" height="28" rx="2" fill="none"/>
    </g>
    <g id="Subtraction_2" data-name="Subtraction 2" transform="translate(3230.245 5133.801)" fill="none" stroke-linecap="round" stroke-linejoin="round">
      <path d="M15.991,16.4a.068.068,0,0,1-.056-.029,14.391,14.391,0,0,1-1.1-1.786.071.071,0,0,1,0-.058.063.063,0,0,1,.04-.038,11.1,11.1,0,0,0,1.678-.8.07.07,0,0,0,.033-.057.066.066,0,0,0-.027-.058c-.107-.08-.217-.166-.335-.263a.063.063,0,0,0-.041-.015.065.065,0,0,0-.029.007,12.78,12.78,0,0,1-5.39,1.205A12.987,12.987,0,0,1,5.343,13.3a.059.059,0,0,0-.027-.006.063.063,0,0,0-.042.016c-.113.092-.226.18-.334.261a.066.066,0,0,0-.027.058.069.069,0,0,0,.034.057,11.663,11.663,0,0,0,1.678.8.072.072,0,0,1,.04.041.066.066,0,0,1,0,.055,12.731,12.731,0,0,1-1.1,1.787.071.071,0,0,1-.056.028l-.019,0A17.925,17.925,0,0,1,.117,13.679a.07.07,0,0,1-.029-.05A18.2,18.2,0,0,1,3.267,1.384.048.048,0,0,1,3.3,1.36,17.631,17.631,0,0,1,7.673,0h.009a.068.068,0,0,1,.061.034A11.373,11.373,0,0,1,8.3,1.155,16.258,16.258,0,0,1,10.744.969a16.752,16.752,0,0,1,2.472.185,12.41,12.41,0,0,1,.545-1.12A.067.067,0,0,1,13.819,0l.014,0A17.71,17.71,0,0,1,18.211,1.36a.047.047,0,0,1,.028.026,18.968,18.968,0,0,1,2.669,5.721,18.276,18.276,0,0,1,.511,6.523.062.062,0,0,1-.029.049A17.87,17.87,0,0,1,16.011,16.4Zm-1.91-9.55a2.064,2.064,0,0,0-1.933,2.169,2.063,2.063,0,0,0,1.933,2.168,2.039,2.039,0,0,0,1.934-2.168,2.252,2.252,0,0,0-.627-1.608A1.831,1.831,0,0,0,14.081,6.848Zm-7.148,0A2.064,2.064,0,0,0,5,9.017a2.063,2.063,0,0,0,1.933,2.168A2.063,2.063,0,0,0,8.867,9.017,2.249,2.249,0,0,0,8.241,7.41,1.83,1.83,0,0,0,6.934,6.848Z" stroke="none"/>
      <path d="M 5.138706684112549 15.22575950622559 C 5.188187122344971 15.14977550506592 5.236639976501465 15.07349014282227 5.284046649932861 14.99693870544434 C 5.008791446685791 14.86349868774414 4.732049465179443 14.71704196929932 4.450715065002441 14.55609035491943 C 4.442754745483398 14.55154037475586 4.434854984283447 14.54687023162842 4.427024841308594 14.54209995269775 C 4.119364738464355 14.35467052459717 3.927514791488647 14.02846050262451 3.913864850997925 13.67035007476807 C 3.899990081787109 13.31454944610596 4.060511112213135 12.98023796081543 4.344416618347168 12.77055263519287 C 4.438462734222412 12.69971942901611 4.5362868309021 12.62327098846436 4.635461807250977 12.54311370849609 C 4.826242923736572 12.38378620147705 5.066092967987061 12.29660034179688 5.31629467010498 12.29660034179688 C 5.470024108886719 12.29660034179688 5.623875617980957 12.33065032958984 5.763191223144531 12.39530372619629 C 7.382871150970459 13.13364028930664 9.06535530090332 13.50800037384033 10.76400470733643 13.50800037384033 C 12.46148586273193 13.50800037384033 14.13236331939697 13.13424968719482 15.73022365570068 12.39716148376465 C 15.87168121337891 12.33071708679199 16.02761459350586 12.29570007324219 16.18289566040039 12.29570007324219 C 16.43039321899414 12.29570007324219 16.67099380493164 12.38253498077393 16.86164283752441 12.54041290283203 C 16.96465873718262 12.62504577636719 17.05964088439941 12.69964981079102 17.15175628662109 12.76832103729248 C 17.43727874755859 12.97765159606934 17.59897994995117 13.31273746490479 17.5853443145752 13.67028045654297 C 17.57171440124512 14.02077007293701 17.38649559020996 14.34277057647705 17.08988571166992 14.53162002563477 C 17.07906532287598 14.53852081298828 17.068115234375 14.54520034790039 17.05703544616699 14.55167007446289 C 16.7828483581543 14.71176433563232 16.50532531738281 14.8595609664917 16.22083854675293 14.99678993225098 C 16.26806449890137 15.07313537597656 16.31620216369629 15.14924907684326 16.36518478393555 15.22502136230469 C 17.82830429077148 14.70933628082275 19.17605018615723 14.0150203704834 20.45942687988281 13.11630153656006 C 20.60725021362305 11.12574291229248 20.43362617492676 9.193728446960449 19.94230461120605 7.367330551147461 C 19.46087265014648 5.579565525054932 18.65799522399902 3.829381704330444 17.55438232421875 2.161246299743652 C 16.51610565185547 1.704106092453003 15.4352912902832 1.35398256778717 14.33024311065674 1.116542816162109 C 14.25610446929932 1.272913575172424 14.18899917602539 1.422537326812744 14.13743495941162 1.544400334358215 C 13.95959568023682 1.964690446853638 13.51976108551025 2.211250066757202 13.06841468811035 2.143680334091187 C 12.29563522338867 2.027970314025879 11.5136547088623 1.969300389289856 10.74419498443604 1.969300389289856 C 9.976884841918945 1.969300389289856 9.204654693603516 2.027820348739624 8.448974609375 2.143240451812744 C 7.995158195495605 2.212549924850464 7.55243444442749 1.96396005153656 7.375374794006348 1.540400385856628 C 7.322317123413086 1.413487792015076 7.255154609680176 1.266754388809204 7.181191444396973 1.114934086799622 C 6.07488489151001 1.351797580718994 4.992523670196533 1.702349305152893 3.952317953109741 2.160951614379883 C 1.718716979026794 5.586470603942871 0.7668458819389343 9.176605224609375 1.049366474151611 13.11726951599121 C 2.331976890563965 14.01504421234131 3.678416013717651 14.70943927764893 5.138706684112549 15.22575950622559 M 14.08140468597412 5.848100185394287 C 14.83697509765625 5.848100185394287 15.55394458770752 6.153090476989746 16.10024452209473 6.70689058303833 C 16.69232940673828 7.307124614715576 17.02570343017578 8.151457786560059 17.01548767089844 9.024246215820312 C 17.01203155517578 10.79732704162598 15.7244758605957 12.18520069122314 14.08140468597412 12.18520069122314 C 12.46403503417969 12.18520069122314 11.1482048034668 10.76399993896484 11.1482048034668 9.01710033416748 C 11.1482048034668 7.269710540771484 12.46403503417969 5.848100185394287 14.08140468597412 5.848100185394287 M 6.933594703674316 5.848100185394287 C 7.689304828643799 5.848100185394287 8.406404495239258 6.153380393981934 8.952804565429688 6.707710266113281 C 9.54466724395752 7.308170318603516 9.8775634765625 8.152352333068848 9.866786003112793 9.024689674377441 C 9.86293888092041 10.76807594299316 8.548595428466797 12.18520069122314 6.933594703674316 12.18520069122314 C 5.316225051879883 12.18520069122314 4.000404834747314 10.76399993896484 4.000404834747314 9.01710033416748 C 4.000404834747314 7.269710540771484 5.316225051879883 5.848100185394287 6.933594703674316 5.848100185394287 M 15.99119472503662 16.39800071716309 C 15.96888446807861 16.39800071716309 15.94802474975586 16.38723945617676 15.93540477752686 16.36919975280762 C 15.52086448669434 15.79211044311523 15.15143489837646 15.1910400390625 14.83739471435547 14.58270072937012 C 14.8283748626709 14.56375026702881 14.82741451263428 14.54330062866211 14.83469486236572 14.52510070800781 C 14.84211444854736 14.50653076171875 14.85581493377686 14.4934606552124 14.87430477142334 14.48729991912842 C 15.4693546295166 14.26156044006348 16.01840400695801 14.00013065338135 16.55279541015625 13.68810081481934 C 16.57305526733398 13.67520046234131 16.585205078125 13.65453052520752 16.58610534667969 13.6314001083374 C 16.58700561523438 13.60780048370361 16.5769157409668 13.58627033233643 16.55909538269043 13.5738000869751 C 16.45171546936035 13.4938907623291 16.34222412109375 13.40793037414551 16.22430419921875 13.31100082397461 C 16.20515060424805 13.2948055267334 16.17874908447266 13.29056453704834 16.15410423278809 13.30290031433105 C 14.42243480682373 14.1025505065918 12.6089448928833 14.50800037384033 10.76400470733643 14.50800037384033 C 8.919454574584961 14.50800037384033 7.095674991607666 14.1025505065918 5.343305110931396 13.30290031433105 C 5.321111679077148 13.29181575775146 5.292192935943604 13.29611873626709 5.274004936218262 13.31280040740967 C 5.160584926605225 13.40466022491455 5.048264980316162 13.49246025085449 4.940104961395264 13.5738000869751 C 4.922285079956055 13.58628082275391 4.912184715270996 13.60780048370361 4.913105010986328 13.6314001083374 C 4.913994789123535 13.65475082397461 4.926465034484863 13.67541027069092 4.94729471206665 13.68810081481934 C 5.518904685974121 14.01512050628662 6.067675113677979 14.27655029296875 6.624905109405518 14.48729991912842 C 6.643135070800781 14.49425029754639 6.657895088195801 14.50901031494141 6.66539478302002 14.52780055999756 C 6.672324657440186 14.54513072967529 6.671084880828857 14.56411075592041 6.661794662475586 14.58270072937012 C 6.354644775390625 15.1925106048584 5.984914779663086 15.79388046264648 5.562894821166992 16.3701000213623 C 5.544826507568359 16.39299583435059 5.516128540039062 16.40325355529785 5.488194942474365 16.39529991149902 C 3.535004854202271 15.78774070739746 1.778084874153137 14.89926052093506 0.1170048788189888 13.67910003662109 C 0.1002548784017563 13.66676044464111 0.09003487974405289 13.64885997772217 0.08820487558841705 13.62870025634766 C -0.3249151110649109 9.201400756835938 0.714884877204895 5.196190357208252 3.26700496673584 1.38420033454895 C 3.273584842681885 1.371980309486389 3.283834934234619 1.363320350646973 3.29579496383667 1.35990035533905 C 4.692884922027588 0.7176603674888611 6.165764808654785 0.2607103586196899 7.673394680023193 0.001800358528271317 L 7.6824049949646 0.0009003586019389331 C 7.709165096282959 0.0009003586019389331 7.732004642486572 0.01369035895913839 7.743594646453857 0.03510035946965218 C 7.947304725646973 0.3949503600597382 8.159734725952148 0.8239703774452209 8.297994613647461 1.154700398445129 C 9.104774475097656 1.031480312347412 9.928154945373535 0.9693003296852112 10.74419498443604 0.9693003296852112 C 11.56307506561279 0.9693003296852112 12.39487457275391 1.031680345535278 13.2164945602417 1.154700398445129 C 13.33688449859619 0.8701903820037842 13.55262470245361 0.4057503640651703 13.76099491119385 0.03510035946965218 C 13.7763147354126 0.008854963816702366 13.80435657501221 -0.003737429156899452 13.83210468292236 0.001800358528271317 C 15.34069442749023 0.2617803514003754 16.8138542175293 0.7187103629112244 18.21060562133789 1.35990035533905 C 18.22348403930664 1.364500403404236 18.2331657409668 1.37354040145874 18.23850440979004 1.386000394821167 C 19.47873497009277 3.210360288619995 20.37687492370605 5.135340213775635 20.90790557861328 7.107300281524658 C 21.46489524841309 9.177800178527832 21.63689422607422 11.37252044677734 21.41910552978516 13.63050079345703 C 21.41818428039551 13.64973068237305 21.40823554992676 13.6665506362915 21.39029502868652 13.67910003662109 C 19.72813415527344 14.90054988861084 17.96854400634766 15.78903007507324 16.01100540161133 16.39529991149902 C 16.00360488891602 16.39715003967285 15.99733448028564 16.39800071716309 15.99119472503662 16.39800071716309 Z M 14.08140468597412 6.848100185394287 C 13.01542472839355 6.848100185394287 12.1482048034668 7.821110248565674 12.1482048034668 9.01710033416748 C 12.1482048034668 10.21259021759033 13.01542472839355 11.18520069122314 14.08140468597412 11.18520069122314 C 15.16593456268311 11.18520069122314 16.01549530029297 10.23286056518555 16.01549530029297 9.01710033416748 C 16.02383422851562 8.407730102539062 15.79523468017578 7.82166051864624 15.38832473754883 7.409150123596191 C 15.0314245223999 7.047350406646729 14.56728458404541 6.848100185394287 14.08140468597412 6.848100185394287 Z M 6.933594703674316 6.848100185394287 C 5.867624759674072 6.848100185394287 5.000404834747314 7.821110248565674 5.000404834747314 9.01710033416748 C 5.000404834747314 10.21259021759033 5.867624759674072 11.18520069122314 6.933594703674316 11.18520069122314 C 7.999564647674561 11.18520069122314 8.866794586181641 10.21259021759033 8.866794586181641 9.01710033416748 C 8.875584602355957 8.408210754394531 8.647344589233398 7.822340488433838 8.240614891052246 7.409700393676758 C 7.883645057678223 7.047550201416016 7.419475078582764 6.848100185394287 6.933594703674316 6.848100185394287 Z" stroke="none" fill="#fff"/>
    </g>
  </g>
</svg>
