<svg xmlns="http://www.w3.org/2000/svg" xmlns:xlink="http://www.w3.org/1999/xlink" width="48" height="48.006" viewBox="0 0 48 48.006">
  <defs>
    <linearGradient id="linear-gradient" x1="-0.079" y1="1.059" x2="1" gradientUnits="objectBoundingBox">
      <stop offset="0" stop-color="#fd5"/>
      <stop offset="0" stop-color="#ff8c47"/>
      <stop offset="0.318" stop-color="#ff543e"/>
      <stop offset="0.581" stop-color="#dc4184"/>
      <stop offset="1" stop-color="#c837ab"/>
    </linearGradient>
  </defs>
  <g id="Insta_hover" data-name="Insta hover" transform="translate(8.902 8.547)">
    <g id="instagram" transform="translate(0.098 0.453)">
      <path id="Path_3" data-name="Path 3" d="M1.887,2.045C-.464,4.487.017,7.08.017,14.96c0,6.544-1.142,13.1,4.834,14.648,1.866.48,18.4.48,20.262,0,2.488-.642,4.512-2.66,4.789-6.178.039-.491.039-16.434,0-16.935C29.606,2.744,27.3.584,24.259.147A26.911,26.911,0,0,0,19.848.009C7.168.016,4.388-.549,1.887,2.045Z" transform="translate(0.07 0.038)" fill="url(#linear-gradient)"/>
      <path id="Path_17" data-name="Path 17" d="M1.429,1.234C-.922,3.676.017,7.08.017,14.96c-.1,11.558-.956,13.467,4.853,14.808,1.866.48,17.726-.044,20.267-.028,3.511,0,4.98-2.629,4.84-6.332-.016-1.391-.037-16.415-.077-16.916C30.082,3.34,29.567.25,24.557-.265c-.7-.1-1.154.006-4.729,0-12.68.006-15.9-1.1-18.4,1.5Z" transform="translate(0.07 0.038)" fill="url(#linear-gradient)"/>
      <path id="Path_4" data-name="Path 4" d="M13.086,3.14c-4.077,0-7.948-.363-9.426,3.432-.611,1.567-.522,3.6-.522,6.517,0,2.558-.082,4.961.522,6.516,1.475,3.8,5.378,3.433,9.424,3.433,3.9,0,7.929.406,9.425-3.433.612-1.583.522-3.588.522-6.516,0-3.887.214-6.4-1.671-8.28-1.909-1.909-4.49-1.67-8.279-1.67Zm-.891,1.793c8.5-.013,9.586-.959,8.989,12.174-.212,4.645-3.749,4.135-8.1,4.135-7.927,0-8.154-.227-8.154-8.157,0-8.022.629-8.148,7.262-8.154Zm6.2,1.652A1.193,1.193,0,1,0,19.59,7.778,1.194,1.194,0,0,0,18.4,6.585Zm-5.311,1.4a5.109,5.109,0,1,0,5.107,5.11,5.109,5.109,0,0,0-5.107-5.11Zm0,1.793c4.384,0,4.39,6.633,0,6.633S8.7,9.773,13.086,9.773Z" transform="translate(2.28 2.282)" fill="#fff"/>
    </g>
  </g>
</svg>
