<svg id="Twitter" xmlns="http://www.w3.org/2000/svg" width="30" height="30" viewBox="0 0 30 30">
  <g id="Layer_2" data-name="Layer 2" transform="translate(0.49 0.49)">
    <g id="_04.Twitter" data-name="04.Twitter" transform="translate(-0.295 -0.295)">
      <g id="Background" transform="translate(-0.194 -0.194)" fill="none" stroke="#fff" stroke-width="2">
        <rect width="30" height="30" rx="5" stroke="none"/>
        <rect x="1" y="1" width="28" height="28" rx="4" fill="none"/>
      </g>
      <path id="Icon" d="M45.89,37.83a8.145,8.145,0,0,1-2.256.619,3.891,3.891,0,0,0,1.722-2.164,7.82,7.82,0,0,1-2.482.948A3.914,3.914,0,0,0,36.1,39.909a4.048,4.048,0,0,0,.091.892,11.086,11.086,0,0,1-8.07-4.094,3.918,3.918,0,0,0,1.2,5.236,3.863,3.863,0,0,1-1.769-.483V41.5a3.933,3.933,0,0,0,3.136,3.844,3.9,3.9,0,0,1-1.026.128,3.491,3.491,0,0,1-.743-.066,3.955,3.955,0,0,0,3.66,2.727,7.872,7.872,0,0,1-4.849,1.67,7.07,7.07,0,0,1-.937-.054,11.149,11.149,0,0,0,17.156-9.383c0-.173,0-.339-.014-.506A7.789,7.789,0,0,0,45.89,37.83Z" transform="translate(-21.439 -28.849)" fill="none" stroke="#fff" stroke-linecap="round" stroke-linejoin="round" stroke-width="1"/>
    </g>
  </g>
</svg>
