<svg xmlns="http://www.w3.org/2000/svg" width="48" height="48" viewBox="0 0 48 48">
  <g id="whatsapp_hover" data-name="whatsapp hover" transform="translate(9 9)">
    <g id="whatsapp">
      <rect id="background" width="30" height="30" rx="4" transform="translate(0 0)" fill="#29a71a"/>
      <rect id="background-2" data-name="background" width="30" height="30" rx="4" transform="translate(0 0)" fill="#29a71a"/>
      <g id="icon" transform="translate(5.701 5.629)">
        <path id="Path_969" data-name="Path 969" d="M49.36,35.781a9.3,9.3,0,0,0-14.9,10.761l-.987,4.791a.355.355,0,0,0,.056.278.36.36,0,0,0,.382.148l4.7-1.113A9.3,9.3,0,0,0,49.36,35.781ZM47.9,47.468a7.285,7.285,0,0,1-8.39,1.364l-.655-.324-2.879.682.009-.036.6-2.9-.32-.632A7.282,7.282,0,0,1,47.9,37.171a.389.389,0,0,0,.037.037A7.282,7.282,0,0,1,47.9,47.468Z" transform="translate(-33.447 -33.024)" fill="#fff"/>
        <path id="Path_970" data-name="Path 970" d="M70.092,68.764a3.024,3.024,0,0,1-1.611,1.4c-1.227.3-3.111.01-5.455-2.175L63,67.968c-2.061-1.911-2.6-3.5-2.466-4.763A3.015,3.015,0,0,1,61.7,61.42a.67.67,0,0,1,1.048.24l.759,1.7a.666.666,0,0,1-.084.682l-.384.5a.66.66,0,0,0-.06.736,7.166,7.166,0,0,0,1.3,1.444,7.591,7.591,0,0,0,1.8,1.29.651.651,0,0,0,.714-.15l.445-.448a.682.682,0,0,1,.665-.17l1.8.511a.682.682,0,0,1,.382,1.007Z" transform="translate(-55.9 -56.446)" fill="#fff"/>
      </g>
    </g>
  </g>
</svg>
